solid 海龜分殼版
facet normal -0.8337361502032089 0.4869331882627404 -0.2603461196419394
  outer loop
    vertex -29.197753756996313 219.6176635530832 177.28769161993597
    vertex -44.47140456687418 189.6007816506232 170.05877196757584
    vertex -45.02616211731431 189.3986811117196 171.45734078489858
  endloop
endfacet
facet normal -0.8098395575307512 0.489825868958703 -0.32284750139539375
  outer loop
    vertex -29.197753756996313 219.6176635530832 177.28769161993597
    vertex -28.702791677957176 219.5026415272814 175.8716031173295
    vertex -44.47140456687418 189.6007816506232 170.05877196757584
  endloop
endfacet
facet normal -0.30126549202289066 -0.026104042799436743 0.953182921723701
  outer loop
    vertex -3.2226336469105066 193.00347344119822 189.54107949825388
    vertex -16.210193701953408 206.50996140940404 185.80608839735453
    vertex -24.124397882112405 191.40047018872238 182.89091297983586
  endloop
endfacet
facet normal -0.2507442518161862 0.026488078766948798 0.9676909123601279
  outer loop
    vertex -3.2226336469105066 210.24291779364677 189.06919353335167
    vertex -16.210193701953408 206.50996140940404 185.80608839735453
    vertex -3.2226336469105066 193.00347344119822 189.54107949825388
  endloop
endfacet
facet normal -0.23334119415916546 0.9592290307120486 -0.1594727366906285
  outer loop
    vertex -3.2226336469105066 226.762459929899 182.25675764775593
    vertex -28.702791677957176 219.5026415272814 175.8716031173295
    vertex -29.197753756996313 219.6176635530832 177.28769161993597
  endloop
endfacet
facet normal -0.2248482669430301 0.9543129126269939 -0.19679969930388416
  outer loop
    vertex -3.2226336469105066 227.0835763215684 183.8139018919303
    vertex -3.2226336469105066 226.762459929899 182.25675764775593
    vertex -29.197753756996313 219.6176635530832 177.28769161993597
  endloop
endfacet
facet normal -0.4111440160405878 0.37806247053848646 -0.8294753561404659
  outer loop
    vertex -23.69035862410306 212.20022844116394 170.0587719675758
    vertex -44.47140456687418 189.6007816506232 170.05877196757584
    vertex -28.702791677957176 219.5026415272814 175.8716031173295
  endloop
endfacet
facet normal 0.03297463415297732 0.6141418152860051 -0.7885065023319008
  outer loop
    vertex -3.2226336469105066 211.1012709589212 170.05877196757578
    vertex -23.69035862410306 212.20022844116394 170.0587719675758
    vertex -3.2226336469105066 226.762459929899 182.25675764775593
  endloop
endfacet
facet normal 0.015464401973758887 0.6291938771608167 -0.7770945355714022
  outer loop
    vertex -3.2226336469105066 226.762459929899 182.25675764775593
    vertex -23.69035862410306 212.20022844116394 170.0587719675758
    vertex -28.702791677957176 219.5026415272814 175.8716031173295
  endloop
endfacet
facet normal -0.22908170218874876 -0.26915280569124306 0.9354562207344806
  outer loop
    vertex -3.2226336469105066 193.00347344119822 189.54107949825388
    vertex -13.870856117495517 179.74061972785967 183.1174253666413
    vertex -3.2226336469105066 169.78688448735326 182.86111958457516
  endloop
endfacet
facet normal -0.2793459895151013 -0.22753168192938042 0.9328425118208412
  outer loop
    vertex -3.2226336469105066 193.00347344119822 189.54107949825388
    vertex -24.124397882112405 191.40047018872238 182.89091297983586
    vertex -13.870856117495517 179.74061972785967 183.1174253666413
  endloop
endfacet
facet normal -0.621145342642586 -0.6512487009494762 -0.4359513652060791
  outer loop
    vertex -3.2226336469105066 146.17150970898138 171.39775399437724
    vertex -23.132135941669684 166.0570398427247 170.05877196757586
    vertex -3.2226336469105066 147.06783555457528 170.05877196757586
  endloop
endfacet
facet normal -0.6146695862993231 -0.6458974020033522 -0.45276687794486387
  outer loop
    vertex -24.519078588080525 166.0789801899942 171.9103655585096
    vertex -23.132135941669684 166.0570398427247 170.05877196757586
    vertex -3.2226336469105066 146.17150970898138 171.39775399437724
  endloop
endfacet
facet normal -0.6900819272068354 -0.6254674273196978 -0.36411183873169883
  outer loop
    vertex -44.47140456687418 189.6007816506232 170.05877196757584
    vertex -23.132135941669684 166.0570398427247 170.05877196757586
    vertex -45.02616211731431 189.3986811117196 171.45734078489858
  endloop
endfacet
facet normal -0.6531499403145921 -0.5837427593148733 -0.4823272192345182
  outer loop
    vertex -45.02616211731431 189.3986811117196 171.45734078489858
    vertex -23.132135941669684 166.0570398427247 170.05877196757586
    vertex -24.519078588080525 166.0789801899942 171.9103655585096
  endloop
endfacet
facet normal 6.089494944619785e-22 -1.9166922931706827e-06 -0.9999999999981632
  outer loop
    vertex -9.560857299282501 200.1668485413493 170.05873555042223
    vertex -7.5608876469105155 181.16684854157424 170.0587719675758
    vertex -9.560887646910512 181.16684854157424 170.0587719675758
  endloop
endfacet
facet normal 6.089494944619785e-22 -1.9166922931706827e-06 -0.9999999999981632
  outer loop
    vertex -7.5608876469105155 181.16684854157424 170.0587719675758
    vertex -9.560857299282501 200.1668485413493 170.05873555042223
    vertex -7.560857299282499 200.1668485413493 170.05873555042223
  endloop
endfacet
facet normal 1.123346105474211e-18 -0.7686142237975422 -0.6397125721572945
  outer loop
    vertex -3.222603299282496 200.66622460207057 177.64370596786134
    vertex -10.5608572992825 201.1656006627919 177.0437059678614
    vertex -3.961167708985901 201.1656006627919 177.0437059678614
  endloop
endfacet
facet normal 1.123346105474211e-18 -0.7686142237975422 -0.6397125721572945
  outer loop
    vertex -10.5608572992825 201.1656006627919 177.0437059678614
    vertex -3.222603299282496 200.66622460207057 177.64370596786134
    vertex -10.0608572992825 200.66622460207057 177.64370596786134
  endloop
endfacet
facet normal 0.7682212801780891 -2.2732597781030144e-06 -0.6401843989635879
  outer loop
    vertex -10.5608572992825 201.1656006627919 177.0437059678614
    vertex -10.06088764691059 180.66684854157418 177.64374238501497
    vertex -10.56088764691051 180.16684854157413 177.04374238501495
  endloop
endfacet
facet normal 0.7682212801780891 -2.2732597781030144e-06 -0.6401843989635879
  outer loop
    vertex -10.06088764691059 180.66684854157418 177.64374238501497
    vertex -10.5608572992825 201.1656006627919 177.0437059678614
    vertex -10.0608572992825 200.66622460207057 177.64370596786134
  endloop
endfacet
facet normal 7.37627908448551e-16 0.768221279597376 -0.6401843996644799
  outer loop
    vertex -10.06088764691059 180.66684854157418 177.64374238501497
    vertex -3.9611980566139344 180.1668485415741 177.04374238501495
    vertex -10.56088764691051 180.16684854157413 177.04374238501495
  endloop
endfacet
facet normal 7.37627908448551e-16 0.768221279597376 -0.6401843996644799
  outer loop
    vertex -3.9611980566139344 180.1668485415741 177.04374238501495
    vertex -10.06088764691059 180.66684854157418 177.64374238501497
    vertex -3.2226336469105124 180.66684854157415 177.64374238501492
  endloop
endfacet
facet normal -4.2383710733534695e-19 0.7686142237975652 -0.6397125721572671
  outer loop
    vertex -10.0608572992825 200.66622460207057 177.64370596786134
    vertex -3.961167708985918 200.16684854134934 177.04370596786134
    vertex -9.560857299282501 200.16684854134934 177.04370596786134
  endloop
endfacet
facet normal -4.2383710733534695e-19 0.7686142237975652 -0.6397125721572671
  outer loop
    vertex -3.961167708985918 200.16684854134934 177.04370596786134
    vertex -10.0608572992825 200.66622460207057 177.64370596786134
    vertex -3.222603299282496 200.66622460207057 177.64370596786134
  endloop
endfacet
facet normal -0.768221279597363 2.241522914610233e-15 -0.6401843996644956
  outer loop
    vertex -10.0608572992825 200.66622460207057 177.64370596786134
    vertex -9.560887646910512 181.16684854157415 177.04374238501492
    vertex -10.06088764691059 180.66684854157418 177.64374238501497
  endloop
endfacet
facet normal -0.768221279597363 2.241522914610233e-15 -0.6401843996644956
  outer loop
    vertex -9.560887646910512 181.16684854157415 177.04374238501492
    vertex -10.0608572992825 200.66622460207057 177.64370596786134
    vertex -9.560857299282501 200.16684854134934 177.04370596786134
  endloop
endfacet
facet normal -2.772210114266904e-15 -0.7682212795973772 -0.6401843996644782
  outer loop
    vertex -3.2226336469105124 180.66684854157415 177.64374238501492
    vertex -9.560887646910512 181.16684854157415 177.04374238501492
    vertex -3.9611980566139233 181.16684854157415 177.04374238501492
  endloop
endfacet
facet normal -2.772210114266904e-15 -0.7682212795973772 -0.6401843996644782
  outer loop
    vertex -9.560887646910512 181.16684854157415 177.04374238501492
    vertex -3.2226336469105124 180.66684854157415 177.64374238501492
    vertex -10.06088764691059 180.66684854157418 177.64374238501497
  endloop
endfacet
facet normal 0.9999999999989557 -1.445211021979862e-06 -4.0373296996540955e-16
  outer loop
    vertex -10.560887646910516 180.16684854157427 170.05877196757584
    vertex -10.5608572992825 201.1656006627919 177.0437059678614
    vertex -10.56088764691051 180.16684854157413 177.04374238501495
  endloop
endfacet
facet normal 0.9999999999989557 -1.445211021979862e-06 -4.0373296996540955e-16
  outer loop
    vertex -10.5608572992825 201.1656006627919 177.0437059678614
    vertex -10.560887646910516 180.16684854157427 170.05877196757584
    vertex -10.5608572992825 201.1656006627919 170.0587719675758
  endloop
endfacet
facet normal -0.9999999999987246 1.5972435795231048e-06 7.678608919180656e-21
  outer loop
    vertex -9.560857299282501 200.16684854134934 177.04370596786134
    vertex -9.560887646910512 181.16684854157424 170.0587719675758
    vertex -9.560887646910512 181.16684854157415 177.04374238501492
  endloop
endfacet
facet normal -0.9999999999987246 1.5972435795231048e-06 7.678608919180656e-21
  outer loop
    vertex -9.560887646910512 181.16684854157424 170.0587719675758
    vertex -9.560857299282501 200.16684854134934 177.04370596786134
    vertex -9.560857299282501 200.1668485413493 170.05873555042223
  endloop
endfacet
facet normal 4.728909887894516e-15 -1.0 -8.097689185859736e-15
  outer loop
    vertex -7.5608876469105155 181.1668485415742 172.0587719675758
    vertex -9.560887646910512 181.16684854157424 170.0587719675758
    vertex -7.5608876469105155 181.16684854157424 170.0587719675758
  endloop
endfacet
facet normal 4.728909887894516e-15 -1.0 -8.097689185859736e-15
  outer loop
    vertex -9.560887646910512 181.16684854157424 170.0587719675758
    vertex -7.5608876469105155 181.1668485415742 172.0587719675758
    vertex -9.560887646910512 181.16684854157415 177.04374238501492
  endloop
endfacet
facet normal 4.728909887894516e-15 -1.0 -8.097689185859736e-15
  outer loop
    vertex -9.560887646910512 181.16684854157415 177.04374238501492
    vertex -7.5608876469105155 181.1668485415742 172.0587719675758
    vertex -7.5608876469105155 181.1668485415742 174.11940196757573
  endloop
endfacet
facet normal 4.728909887894516e-15 -1.0 -8.097689185859736e-15
  outer loop
    vertex -9.560887646910512 181.16684854157415 177.04374238501492
    vertex -7.5608876469105155 181.1668485415742 174.11940196757573
    vertex -3.9611980566139233 181.16684854157415 177.04374238501492
  endloop
endfacet
facet normal 1.8057402558756844e-17 -1.0 1.249000902703301e-16
  outer loop
    vertex -7.560857299282499 201.16560066279192 170.25873555042224
    vertex -10.5608572992825 201.1656006627919 170.0587719675758
    vertex -7.760820882128951 201.1656006627919 170.0587719675758
  endloop
endfacet
facet normal 1.8057402558756844e-17 -1.0 1.249000902703301e-16
  outer loop
    vertex -10.5608572992825 201.1656006627919 170.0587719675758
    vertex -7.560857299282499 201.16560066279192 170.25873555042224
    vertex -10.5608572992825 201.1656006627919 177.0437059678614
  endloop
endfacet
facet normal 1.8057402558756844e-17 -1.0 1.249000902703301e-16
  outer loop
    vertex -10.5608572992825 201.1656006627919 177.0437059678614
    vertex -7.560857299282499 201.16560066279192 170.25873555042224
    vertex -7.560857299282499 201.16560066279192 174.11936555042226
  endloop
endfacet
facet normal 1.8057402558756844e-17 -1.0 1.249000902703301e-16
  outer loop
    vertex -10.5608572992825 201.1656006627919 177.0437059678614
    vertex -7.560857299282499 201.16560066279192 174.11936555042226
    vertex -3.961167708985901 201.1656006627919 177.0437059678614
  endloop
endfacet
facet normal 0.6305399208252025 -1.777126836316439e-06 -0.776156819362292
  outer loop
    vertex -7.560857299282499 200.16684854134937 174.11936555042223
    vertex -3.9611980566139233 181.16684854157415 177.04374238501492
    vertex -7.5608876469105155 181.1668485415742 174.11940196757573
  endloop
endfacet
facet normal 0.6305399208252025 -1.777126836316439e-06 -0.776156819362292
  outer loop
    vertex -3.9611980566139233 181.16684854157415 177.04374238501492
    vertex -7.560857299282499 200.16684854134937 174.11936555042223
    vertex -3.961167708985918 200.16684854134934 177.04370596786134
  endloop
endfacet
facet normal 0.6305399208252025 -1.777126836316439e-06 -0.776156819362292
  outer loop
    vertex -3.9611980566139233 181.16684854157415 177.04374238501492
    vertex -3.961167708985918 200.16684854134934 177.04370596786134
    vertex -3.2226336469105124 180.66684854157415 177.64374238501492
  endloop
endfacet
facet normal 0.6305399208252025 -1.777126836316439e-06 -0.776156819362292
  outer loop
    vertex -3.2226336469105124 180.66684854157415 177.64374238501492
    vertex -3.961167708985918 200.16684854134934 177.04370596786134
    vertex -3.222603299282496 200.66622460207057 177.64370596786134
  endloop
endfacet
facet normal 0.6305399208252025 -1.777126836316439e-06 -0.776156819362292
  outer loop
    vertex -3.9611980566139344 180.1668485415741 177.04374238501495
    vertex -7.5608876469105155 169.0208414961627 174.1194019675757
    vertex -7.5608876469105155 180.16684854157424 174.11940196757575
  endloop
endfacet
facet normal 0.6305399208252025 -1.777126836316439e-06 -0.776156819362292
  outer loop
    vertex -7.5608876469105155 169.0208414961627 174.1194019675757
    vertex -3.9611980566139344 180.1668485415741 177.04374238501495
    vertex -3.2226336469105124 169.02084149616266 177.64374238501492
  endloop
endfacet
facet normal 0.6305399208252025 -1.777126836316439e-06 -0.776156819362292
  outer loop
    vertex -3.2226336469105124 169.02084149616266 177.64374238501492
    vertex -3.9611980566139344 180.1668485415741 177.04374238501495
    vertex -3.2226336469105124 180.66684854157415 177.64374238501492
  endloop
endfacet
facet normal 0.6305399018108323 7.510453926481856e-06 -0.776156834775021
  outer loop
    vertex -3.2226336469105066 207.3128555869857 177.64374238501497
    vertex -7.560857299282499 201.16560066279192 174.11936555042226
    vertex -7.560887646910509 207.3128555869857 174.11940196757578
  endloop
endfacet
facet normal 0.6305399018108323 7.510453926481856e-06 -0.776156834775021
  outer loop
    vertex -7.560857299282499 201.16560066279192 174.11936555042226
    vertex -3.2226336469105066 207.3128555869857 177.64374238501497
    vertex -3.961167708985901 201.1656006627919 177.0437059678614
  endloop
endfacet
facet normal 0.6305399018108323 7.510453926481856e-06 -0.776156834775021
  outer loop
    vertex -3.961167708985901 201.1656006627919 177.0437059678614
    vertex -3.2226336469105066 207.3128555869857 177.64374238501497
    vertex -3.222603299282496 200.66622460207057 177.64370596786134
  endloop
endfacet
facet normal 1.191788568877957e-15 1.0 1.0817735596191369e-14
  outer loop
    vertex -10.56088764691051 180.16684854157413 177.04374238501495
    vertex -7.760887646910447 180.16684854157427 170.05877196757584
    vertex -10.560887646910516 180.16684854157427 170.05877196757584
  endloop
endfacet
facet normal 1.191788568877957e-15 1.0 1.0817735596191369e-14
  outer loop
    vertex -7.760887646910447 180.16684854157427 170.05877196757584
    vertex -10.56088764691051 180.16684854157413 177.04374238501495
    vertex -7.5608876469105155 180.16684854157424 170.25877196757577
  endloop
endfacet
facet normal 1.191788568877957e-15 1.0 1.0817735596191369e-14
  outer loop
    vertex -7.5608876469105155 180.16684854157424 170.25877196757577
    vertex -10.56088764691051 180.16684854157413 177.04374238501495
    vertex -7.5608876469105155 180.16684854157424 174.11940196757575
  endloop
endfacet
facet normal 1.191788568877957e-15 1.0 1.0817735596191369e-14
  outer loop
    vertex -7.5608876469105155 180.16684854157424 174.11940196757575
    vertex -10.56088764691051 180.16684854157413 177.04374238501495
    vertex -3.9611980566139344 180.1668485415741 177.04374238501495
  endloop
endfacet
facet normal 0.9999999999987246 -1.5972435798199437e-06 8.69242859354573e-21
  outer loop
    vertex -7.5608876469105155 181.1668485415742 172.0587719675758
    vertex -7.560857299282499 200.16684854134937 174.11936555042223
    vertex -7.5608876469105155 181.1668485415742 174.11940196757573
  endloop
endfacet
facet normal 0.9999999999987246 -1.5972435798199437e-06 8.69242859354573e-21
  outer loop
    vertex -7.560857299282499 200.16684854134937 174.11936555042223
    vertex -7.5608876469105155 181.1668485415742 172.0587719675758
    vertex -7.560857299282499 200.1668485413493 172.0587355504222
  endloop
endfacet
facet normal 0.9642053928037903 -0.2651564830210428 -1.0953478354949875e-15
  outer loop
    vertex -7.010887646910517 183.1668485415742 171.05877196757584
    vertex -7.5608876469105155 181.1668485415742 172.0587719675758
    vertex -7.5608876469105155 181.16684854157424 170.0587719675758
  endloop
endfacet
facet normal -1.4175908359592169e-15 1.0 -4.718447854656915e-16
  outer loop
    vertex -9.560857299282501 200.16684854134934 177.04370596786134
    vertex -7.560857299282499 200.1668485413493 170.05873555042223
    vertex -9.560857299282501 200.1668485413493 170.05873555042223
  endloop
endfacet
facet normal -1.4175908359592169e-15 1.0 -4.718447854656915e-16
  outer loop
    vertex -7.560857299282499 200.1668485413493 170.05873555042223
    vertex -9.560857299282501 200.16684854134934 177.04370596786134
    vertex -7.560857299282499 200.1668485413493 172.0587355504222
  endloop
endfacet
facet normal -1.4175908359592169e-15 1.0 -4.718447854656915e-16
  outer loop
    vertex -7.560857299282499 200.1668485413493 172.0587355504222
    vertex -9.560857299282501 200.16684854134934 177.04370596786134
    vertex -7.560857299282499 200.16684854134937 174.11936555042223
  endloop
endfacet
facet normal -1.4175908359592169e-15 1.0 -4.718447854656915e-16
  outer loop
    vertex -7.560857299282499 200.16684854134937 174.11936555042223
    vertex -9.560857299282501 200.16684854134934 177.04370596786134
    vertex -3.961167708985918 200.16684854134934 177.04370596786134
  endloop
endfacet
facet normal 0.8761607173612803 -9.253163365698967e-06 -0.48201908392442916
  outer loop
    vertex -7.560857299282499 200.1668485413493 170.05873555042223
    vertex -7.010887646910517 183.1668485415742 171.05877196757584
    vertex -7.5608876469105155 181.16684854157424 170.0587719675758
  endloop
endfacet
facet normal 0.8761607173612803 -9.253163365698967e-06 -0.48201908392442916
  outer loop
    vertex -7.010887646910517 183.1668485415742 171.05877196757584
    vertex -7.560857299282499 200.1668485413493 170.05873555042223
    vertex -7.010731683601609 198.16684856994928 171.05842151121996
  endloop
endfacet
facet normal 0.8762246233732688 5.31759954556711e-07 0.4819029045296271
  outer loop
    vertex -7.010887646910517 183.1668485415742 171.05877196757584
    vertex -7.560857299282499 200.1668485413493 172.0587355504222
    vertex -7.5608876469105155 181.1668485415742 172.0587719675758
  endloop
endfacet
facet normal 0.8762246233732688 5.31759954556711e-07 0.4819029045296271
  outer loop
    vertex -7.560857299282499 200.1668485413493 172.0587355504222
    vertex -7.010887646910517 183.1668485415742 171.05877196757584
    vertex -7.010731683601609 198.16684856994928 171.05842151121996
  endloop
endfacet
facet normal 0.9641899074349825 0.26521278702302453 -3.982334498211991e-16
  outer loop
    vertex -7.560857299282499 200.1668485413493 172.0587355504222
    vertex -7.010731683601609 198.16684856994928 171.05842151121996
    vertex -7.560857299282499 200.1668485413493 170.05873555042223
  endloop
endfacet
facet normal 0.9999999999878142 4.9367772094190184e-06 -4.1307900516967834e-22
  outer loop
    vertex -7.560887646910509 207.3128555869857 170.2587719675758
    vertex -7.560857299282499 201.16560066279192 174.11936555042226
    vertex -7.560857299282499 201.16560066279192 170.25873555042224
  endloop
endfacet
facet normal 0.9999999999878142 4.9367772094190184e-06 -4.1307900516967834e-22
  outer loop
    vertex -7.560857299282499 201.16560066279192 174.11936555042226
    vertex -7.560887646910509 207.3128555869857 170.2587719675758
    vertex -7.560887646910509 207.3128555869857 174.11940196757578
  endloop
endfacet
facet normal 1.0 0.0 0.0
  outer loop
    vertex -7.5608876469105155 169.02084149616272 170.2587719675758
    vertex -7.5608876469105155 180.16684854157424 174.11940196757575
    vertex -7.5608876469105155 169.0208414961627 174.1194019675757
  endloop
endfacet
facet normal 1.0 0.0 0.0
  outer loop
    vertex -7.5608876469105155 180.16684854157424 174.11940196757575
    vertex -7.5608876469105155 169.02084149616272 170.2587719675758
    vertex -7.5608876469105155 180.16684854157424 170.25877196757577
  endloop
endfacet
facet normal 0.7071067811656753 7.679823006011064e-06 -0.707106781165715
  outer loop
    vertex -7.560887646910509 207.3128555869857 170.2587719675758
    vertex -7.760820882128951 201.1656006627919 170.0587719675758
    vertex -7.760887646910532 207.3128555869857 170.0587719675758
  endloop
endfacet
facet normal 0.7071067811656753 7.679823006011064e-06 -0.707106781165715
  outer loop
    vertex -7.760820882128951 201.1656006627919 170.0587719675758
    vertex -7.560887646910509 207.3128555869857 170.2587719675758
    vertex -7.560857299282499 201.16560066279192 170.25873555042224
  endloop
endfacet
facet normal 0.7071067811865576 9.69948227621125e-16 -0.7071067811865376
  outer loop
    vertex -7.760887646910447 180.16684854157427 170.05877196757584
    vertex -7.5608876469105155 169.02084149616272 170.2587719675758
    vertex -7.760887646910424 169.02084149616266 170.05877196757584
  endloop
endfacet
facet normal 0.7071067811865576 9.69948227621125e-16 -0.7071067811865376
  outer loop
    vertex -7.5608876469105155 169.02084149616272 170.2587719675758
    vertex -7.760887646910447 180.16684854157427 170.05877196757584
    vertex -7.5608876469105155 180.16684854157424 170.25877196757577
  endloop
endfacet
facet normal -2.8605087341106636e-19 -0.7071067811866797 -0.7071067811864155
  outer loop
    vertex -3.2226336469105066 207.3128555869857 170.2587719675758
    vertex -7.760887646910486 207.5128555869857 170.0587719675758
    vertex -3.2226336469105066 207.5128555869857 170.0587719675758
  endloop
endfacet
facet normal -2.8605087341106636e-19 -0.7071067811866797 -0.7071067811864155
  outer loop
    vertex -7.760887646910486 207.5128555869857 170.0587719675758
    vertex -3.2226336469105066 207.3128555869857 170.2587719675758
    vertex -7.560887646910509 207.3128555869857 170.2587719675758
  endloop
endfacet
facet normal -3.7910322253145535e-15 0.7071067811866053 -0.7071067811864898
  outer loop
    vertex -7.5608876469105155 169.02084149616272 170.2587719675758
    vertex -3.2226336469105124 168.82084149616279 170.05877196757584
    vertex -7.760887646910402 168.82084149616279 170.05877196757584
  endloop
endfacet
facet normal -3.7910322253145535e-15 0.7071067811866053 -0.7071067811864898
  outer loop
    vertex -3.2226336469105124 168.82084149616279 170.05877196757584
    vertex -7.5608876469105155 169.02084149616272 170.2587719675758
    vertex -3.2226336469105124 169.02084149616275 170.25877196757577
  endloop
endfacet
facet normal 0.707106781186561 -5.771227751772228e-14 -0.707106781186534
  outer loop
    vertex -7.760887646910486 207.5128555869857 170.0587719675758
    vertex -7.560887646910509 207.3128555869857 170.2587719675758
    vertex -7.760887646910532 207.3128555869857 170.0587719675758
  endloop
endfacet
facet normal 0.7071067811865577 2.5408732557182378e-14 -0.7071067811865375
  outer loop
    vertex -7.5608876469105155 169.02084149616272 170.2587719675758
    vertex -7.760887646910402 168.82084149616279 170.05877196757584
    vertex -7.760887646910424 169.02084149616266 170.05877196757584
  endloop
endfacet
facet normal -0.3094846922366104 0.283266910392896 0.9077329358063824
  outer loop
    vertex -16.210193701953408 206.50996140940404 185.80608839735453
    vertex -3.2226336469105066 227.0835763215684 183.8139018919303
    vertex -29.197753756996313 219.6176635530832 177.28769161993597
  endloop
endfacet
facet normal -0.3094846922366104 0.283266910392896 0.9077329358063824
  outer loop
    vertex -3.2226336469105066 227.0835763215684 183.8139018919303
    vertex -16.210193701953408 206.50996140940404 185.80608839735453
    vertex -3.2226336469105066 210.24291779364677 189.06919353335167
  endloop
endfacet
facet normal -0.4844484154335019 0.08577782788050795 0.8706043286292983
  outer loop
    vertex -24.124397882112405 191.40047018872238 182.89091297983586
    vertex -29.197753756996313 219.6176635530832 177.28769161993597
    vertex -45.02616211731431 189.3986811117196 171.45734078489858
  endloop
endfacet
facet normal -0.4844484154335019 0.08577782788050795 0.8706043286292983
  outer loop
    vertex -29.197753756996313 219.6176635530832 177.28769161993597
    vertex -24.124397882112405 191.40047018872238 182.89091297983586
    vertex -16.210193701953408 206.50996140940404 185.80608839735453
  endloop
endfacet
facet normal -0.4222263205881881 -0.3550983638275078 0.8340444150101284
  outer loop
    vertex -24.519078588080525 166.0789801899942 171.9103655585096
    vertex -24.124397882112405 191.40047018872238 182.89091297983586
    vertex -45.02616211731431 189.3986811117196 171.45734078489858
  endloop
endfacet
facet normal -0.4222263205881881 -0.3550983638275078 0.8340444150101284
  outer loop
    vertex -24.124397882112405 191.40047018872238 182.89091297983586
    vertex -24.519078588080525 166.0789801899942 171.9103655585096
    vertex -13.870856117495517 179.74061972785967 183.1174253666413
  endloop
endfacet
facet normal -0.36055394603295515 -0.4073169983802424 0.8391029226683545
  outer loop
    vertex -3.2226336469105066 146.17150970898138 171.39775399437724
    vertex -13.870856117495517 179.74061972785967 183.1174253666413
    vertex -24.519078588080525 166.0789801899942 171.9103655585096
  endloop
endfacet
facet normal -0.36055394603295515 -0.4073169983802424 0.8391029226683545
  outer loop
    vertex -13.870856117495517 179.74061972785967 183.1174253666413
    vertex -3.2226336469105066 146.17150970898138 171.39775399437724
    vertex -3.2226336469105066 169.78688448735326 182.86111958457516
  endloop
endfacet
facet normal 0.8337361502032089 0.4869331882627404 -0.2603461196419394
  outer loop
    vertex 22.752486463175348 219.6176635530832 177.28769161993597
    vertex 38.580894823493345 189.3986811117196 171.45734078489858
    vertex 38.026137273053216 189.6007816506232 170.05877196757584
  endloop
endfacet
facet normal 0.8098395575307512 0.489825868958703 -0.32284750139539375
  outer loop
    vertex 22.752486463175348 219.6176635530832 177.28769161993597
    vertex 38.026137273053216 189.6007816506232 170.05877196757584
    vertex 22.257524384136218 219.5026415272814 175.8716031173295
  endloop
endfacet
facet normal 0.30126549202289 -0.026104042799437167 0.9531829217237011
  outer loop
    vertex 17.679130588291446 191.40047018872238 182.89091297983586
    vertex 9.764926408132446 206.50996140940404 185.80608839735453
    vertex -3.2226336469105066 193.00347344119822 189.54107949825388
  endloop
endfacet
facet normal 0.25074425181618537 0.026488078766948784 0.9676909123601282
  outer loop
    vertex 9.764926408132446 206.50996140940404 185.80608839735453
    vertex -3.2226336469105066 210.24291779364677 189.06919353335167
    vertex -3.2226336469105066 193.00347344119822 189.54107949825388
  endloop
endfacet
facet normal 0.23334119415916416 0.9592290307120483 -0.15947273669063095
  outer loop
    vertex -3.2226336469105066 226.762459929899 182.25675764775593
    vertex 22.752486463175348 219.6176635530832 177.28769161993597
    vertex 22.257524384136218 219.5026415272814 175.8716031173295
  endloop
endfacet
facet normal 0.2248482669430302 0.9543129126269941 -0.19679969930388394
  outer loop
    vertex -3.2226336469105066 227.0835763215684 183.8139018919303
    vertex 22.752486463175348 219.6176635530832 177.28769161993597
    vertex -3.2226336469105066 226.762459929899 182.25675764775593
  endloop
endfacet
facet normal 0.4111440160405878 0.37806247053848646 -0.8294753561404659
  outer loop
    vertex 38.026137273053216 189.6007816506232 170.05877196757584
    vertex 17.2450913302821 212.20022844116394 170.0587719675758
    vertex 22.257524384136218 219.5026415272814 175.8716031173295
  endloop
endfacet
facet normal -0.03297463415297719 0.614141815286005 -0.7885065023319009
  outer loop
    vertex 17.2450913302821 212.20022844116394 170.0587719675758
    vertex -3.2226336469105066 211.1012709589212 170.05877196757578
    vertex -3.2226336469105066 226.762459929899 182.25675764775593
  endloop
endfacet
facet normal -0.015464401973759053 0.6291938771608168 -0.7770945355714023
  outer loop
    vertex 22.257524384136218 219.5026415272814 175.8716031173295
    vertex 17.2450913302821 212.20022844116394 170.0587719675758
    vertex -3.2226336469105066 226.762459929899 182.25675764775593
  endloop
endfacet
facet normal 0.22908170218874765 -0.26915280569124317 0.935456220734481
  outer loop
    vertex 7.4255888236745555 179.74061972785967 183.1174253666413
    vertex -3.2226336469105066 193.00347344119822 189.54107949825388
    vertex -3.2226336469105066 169.78688448735326 182.86111958457516
  endloop
endfacet
facet normal 0.27934598951510076 -0.22753168192937984 0.9328425118208414
  outer loop
    vertex 17.679130588291446 191.40047018872238 182.89091297983586
    vertex -3.2226336469105066 193.00347344119822 189.54107949825388
    vertex 7.4255888236745555 179.74061972785967 183.1174253666413
  endloop
endfacet
facet normal 0.6211453426425857 -0.6512487009494774 -0.43595136520607763
  outer loop
    vertex -3.2226336469105066 146.17150970898138 171.39775399437724
    vertex -3.2226336469105066 147.06783555457528 170.05877196757586
    vertex 16.68686864784872 166.0570398427247 170.05877196757586
  endloop
endfacet
facet normal 0.6146695862993219 -0.6458974020033527 -0.4527668779448648
  outer loop
    vertex 18.073811294259567 166.0789801899942 171.9103655585096
    vertex -3.2226336469105066 146.17150970898138 171.39775399437724
    vertex 16.68686864784872 166.0570398427247 170.05877196757586
  endloop
endfacet
facet normal 0.6900819272068354 -0.6254674273196978 -0.36411183873169883
  outer loop
    vertex 38.026137273053216 189.6007816506232 170.05877196757584
    vertex 38.580894823493345 189.3986811117196 171.45734078489858
    vertex 16.68686864784872 166.0570398427247 170.05877196757586
  endloop
endfacet
facet normal 0.6531499403145921 -0.5837427593148733 -0.4823272192345182
  outer loop
    vertex 38.580894823493345 189.3986811117196 171.45734078489858
    vertex 18.073811294259567 166.0789801899942 171.9103655585096
    vertex 16.68686864784872 166.0570398427247 170.05877196757586
  endloop
endfacet
facet normal -2.8955807502413696e-22 -1.9166922931706827e-06 -0.9999999999981632
  outer loop
    vertex 1.115627276053406 200.1668485413493 170.05873555042223
    vertex 3.115620353089549 181.16684854157424 170.0587719675758
    vertex 1.1156203530895528 181.16684854157424 170.0587719675758
  endloop
endfacet
facet normal -2.8955807502413696e-22 -1.9166922931706827e-06 -0.9999999999981632
  outer loop
    vertex 3.115620353089549 181.16684854157424 170.0587719675758
    vertex 1.115627276053406 200.1668485413493 170.05873555042223
    vertex 3.115627276053408 200.1668485413493 170.05873555042223
  endloop
endfacet
facet normal 1.0830806862641368e-29 1.0 1.087372293303103e-14
  outer loop
    vertex -7.5608876469105155 169.02084149616272 170.2587719675758
    vertex 1.1156203530895528 169.02084149616272 170.2587719675758
    vertex -3.2226336469105124 169.02084149616275 170.25877196757577
  endloop
endfacet
facet normal 1.0830806862641368e-29 1.0 1.087372293303103e-14
  outer loop
    vertex 1.1156203530895528 169.02084149616272 170.2587719675758
    vertex -7.5608876469105155 169.02084149616272 170.2587719675758
    vertex -7.5608876469105155 169.0208414961627 174.1194019675757
  endloop
endfacet
facet normal 1.0830806862641368e-29 1.0 1.087372293303103e-14
  outer loop
    vertex 1.1156203530895528 169.02084149616272 170.2587719675758
    vertex -7.5608876469105155 169.0208414961627 174.1194019675757
    vertex 1.1156203530895528 169.0208414961627 174.1194019675757
  endloop
endfacet
facet normal 1.0830806862641368e-29 1.0 1.087372293303103e-14
  outer loop
    vertex 1.1156203530895528 169.0208414961627 174.1194019675757
    vertex -7.5608876469105155 169.0208414961627 174.1194019675757
    vertex -3.2226336469105124 169.02084149616266 177.64374238501492
  endloop
endfacet
facet normal 0.0 -1.0 0.0
  outer loop
    vertex 1.1156203530895472 207.3128555869857 174.11940196757578
    vertex -3.2226336469105066 207.3128555869857 170.2587719675758
    vertex 1.1156203530895472 207.3128555869857 170.2587719675758
  endloop
endfacet
facet normal 0.0 -1.0 0.0
  outer loop
    vertex -3.2226336469105066 207.3128555869857 170.2587719675758
    vertex 1.1156203530895472 207.3128555869857 174.11940196757578
    vertex -7.560887646910509 207.3128555869857 170.2587719675758
  endloop
endfacet
facet normal 0.0 -1.0 0.0
  outer loop
    vertex -7.560887646910509 207.3128555869857 170.2587719675758
    vertex 1.1156203530895472 207.3128555869857 174.11940196757578
    vertex -7.560887646910509 207.3128555869857 174.11940196757578
  endloop
endfacet
facet normal 0.0 -1.0 0.0
  outer loop
    vertex -7.560887646910509 207.3128555869857 174.11940196757578
    vertex 1.1156203530895472 207.3128555869857 174.11940196757578
    vertex -3.2226336469105066 207.3128555869857 177.64374238501497
  endloop
endfacet
facet normal 2.2467001802540976e-18 -0.7686142237975422 -0.6397125721572945
  outer loop
    vertex 3.615627276053407 200.66622460207057 177.64370596786134
    vertex -2.4840623142431917 201.1656006627919 177.0437059678614
    vertex 4.115627276053406 201.1656006627919 177.0437059678614
  endloop
endfacet
facet normal 2.2467001802540976e-18 -0.7686142237975422 -0.6397125721572945
  outer loop
    vertex -2.4840623142431917 201.1656006627919 177.0437059678614
    vertex 3.615627276053407 200.66622460207057 177.64370596786134
    vertex -3.222603299282496 200.66622460207057 177.64370596786134
  endloop
endfacet
facet normal -0.7682212798219777 -8.773395206161125e-07 -0.6401843993943563
  outer loop
    vertex 3.615620353089627 180.66684854157418 177.64374238501497
    vertex 4.115627276053406 201.1656006627919 177.0437059678614
    vertex 4.115620353089548 180.16684854157413 177.04374238501495
  endloop
endfacet
facet normal -0.7682212798219777 -8.773395206161125e-07 -0.6401843993943563
  outer loop
    vertex 4.115627276053406 201.1656006627919 177.0437059678614
    vertex 3.615620353089627 180.66684854157418 177.64374238501497
    vertex 3.615627276053407 200.66622460207057 177.64370596786134
  endloop
endfacet
facet normal -7.356739272341107e-16 0.7682212795973757 -0.64018439966448
  outer loop
    vertex -3.2226336469105124 180.66684854157415 177.64374238501492
    vertex 4.115620353089548 180.16684854157413 177.04374238501495
    vertex -2.484069237207028 180.1668485415741 177.04374238501495
  endloop
endfacet
facet normal -7.356739272341107e-16 0.7682212795973757 -0.64018439966448
  outer loop
    vertex 4.115620353089548 180.16684854157413 177.04374238501495
    vertex -3.2226336469105124 180.66684854157415 177.64374238501492
    vertex 3.615620353089627 180.66684854157418 177.64374238501497
  endloop
endfacet
facet normal -1.4127961517365587e-19 0.7686142237975652 -0.6397125721572671
  outer loop
    vertex -3.222603299282496 200.66622460207057 177.64370596786134
    vertex 3.115627276053408 200.16684854134934 177.04370596786134
    vertex -2.484062314243175 200.16684854134934 177.04370596786134
  endloop
endfacet
facet normal -1.4127961517365587e-19 0.7686142237975652 -0.6397125721572671
  outer loop
    vertex 3.115627276053408 200.16684854134934 177.04370596786134
    vertex -3.222603299282496 200.66622460207057 177.64370596786134
    vertex 3.615627276053407 200.66622460207057 177.64370596786134
  endloop
endfacet
facet normal 0.7682212792222451 -1.4673707818038837e-06 -0.6401844001129551
  outer loop
    vertex 3.115620353089549 181.16684854157415 177.04374238501492
    vertex 3.615627276053407 200.66622460207057 177.64370596786134
    vertex 3.615620353089627 180.66684854157418 177.64374238501497
  endloop
endfacet
facet normal 0.7682212792222451 -1.4673707818038837e-06 -0.6401844001129551
  outer loop
    vertex 3.615627276053407 200.66622460207057 177.64370596786134
    vertex 3.115620353089549 181.16684854157415 177.04374238501492
    vertex 3.115627276053408 200.16684854134934 177.04370596786134
  endloop
endfacet
facet normal 2.7692890944192598e-15 -0.7682212795973772 -0.6401843996644782
  outer loop
    vertex 3.615620353089627 180.66684854157418 177.64374238501497
    vertex -2.484069237207039 181.16684854157415 177.04374238501492
    vertex 3.115620353089549 181.16684854157415 177.04374238501492
  endloop
endfacet
facet normal 2.7692890944192598e-15 -0.7682212795973772 -0.6401843996644782
  outer loop
    vertex -2.484069237207039 181.16684854157415 177.04374238501492
    vertex 3.615620353089627 180.66684854157418 177.64374238501497
    vertex -3.2226336469105124 180.66684854157415 177.64374238501492
  endloop
endfacet
facet normal -0.9999999999999458 3.296845363408383e-07 -4.0371860344070237e-16
  outer loop
    vertex 4.115627276053406 201.1656006627919 177.0437059678614
    vertex 4.115620353089553 180.16684854157427 170.05877196757584
    vertex 4.115620353089548 180.16684854157413 177.04374238501495
  endloop
endfacet
facet normal -0.9999999999999458 3.296845363408383e-07 -4.0371860344070237e-16
  outer loop
    vertex 4.115620353089553 180.16684854157427 170.05877196757584
    vertex 4.115627276053406 201.1656006627919 177.0437059678614
    vertex 4.115627276053406 201.1656006627919 170.0587719675758
  endloop
endfacet
facet normal 0.9999999999999336 -3.6436651893271954e-07 -1.7551163881411434e-21
  outer loop
    vertex 3.115620353089549 181.16684854157424 170.0587719675758
    vertex 3.115627276053408 200.16684854134934 177.04370596786134
    vertex 3.115620353089549 181.16684854157415 177.04374238501492
  endloop
endfacet
facet normal 0.9999999999999336 -3.6436651893271954e-07 -1.7551163881411434e-21
  outer loop
    vertex 3.115627276053408 200.16684854134934 177.04370596786134
    vertex 3.115620353089549 181.16684854157424 170.0587719675758
    vertex 3.115627276053408 200.1668485413493 170.05873555042223
  endloop
endfacet
facet normal -4.728909887894516e-15 -1.0 -8.097689185859736e-15
  outer loop
    vertex 3.115620353089549 181.16684854157415 177.04374238501492
    vertex 1.1156203530895528 181.16684854157424 170.0587719675758
    vertex 3.115620353089549 181.16684854157424 170.0587719675758
  endloop
endfacet
facet normal -4.728909887894516e-15 -1.0 -8.097689185859736e-15
  outer loop
    vertex 1.1156203530895528 181.16684854157424 170.0587719675758
    vertex 3.115620353089549 181.16684854157415 177.04374238501492
    vertex 1.1156203530895528 181.1668485415742 172.0587719675758
  endloop
endfacet
facet normal -4.728909887894516e-15 -1.0 -8.097689185859736e-15
  outer loop
    vertex 1.1156203530895528 181.1668485415742 172.0587719675758
    vertex 3.115620353089549 181.16684854157415 177.04374238501492
    vertex 1.1156203530895528 181.1668485415742 174.11940196757573
  endloop
endfacet
facet normal -4.728909887894516e-15 -1.0 -8.097689185859736e-15
  outer loop
    vertex 1.1156203530895528 181.1668485415742 174.11940196757573
    vertex 3.115620353089549 181.16684854157415 177.04374238501492
    vertex -2.484069237207039 181.16684854157415 177.04374238501492
  endloop
endfacet
facet normal -1.8057402558756844e-17 -1.0 1.249000902703301e-16
  outer loop
    vertex 4.115627276053406 201.1656006627919 177.0437059678614
    vertex 1.3155908588998584 201.1656006627919 170.0587719675758
    vertex 4.115627276053406 201.1656006627919 170.0587719675758
  endloop
endfacet
facet normal -1.8057402558756844e-17 -1.0 1.249000902703301e-16
  outer loop
    vertex 1.3155908588998584 201.1656006627919 170.0587719675758
    vertex 4.115627276053406 201.1656006627919 177.0437059678614
    vertex 1.115627276053406 201.16560066279192 170.25873555042224
  endloop
endfacet
facet normal -1.8057402558756844e-17 -1.0 1.249000902703301e-16
  outer loop
    vertex 1.115627276053406 201.16560066279192 170.25873555042224
    vertex 4.115627276053406 201.1656006627919 177.0437059678614
    vertex 1.115627276053406 201.16560066279192 174.11936555042226
  endloop
endfacet
facet normal -1.8057402558756844e-17 -1.0 1.249000902703301e-16
  outer loop
    vertex 1.115627276053406 201.16560066279192 174.11936555042226
    vertex 4.115627276053406 201.1656006627919 177.0437059678614
    vertex -2.4840623142431917 201.1656006627919 177.0437059678614
  endloop
endfacet
facet normal -0.6305401554491988 -7.145307477493493e-07 -0.7761566287583903
  outer loop
    vertex -3.222603299282496 200.66622460207057 177.64370596786134
    vertex -2.484069237207039 181.16684854157415 177.04374238501492
    vertex -3.2226336469105124 180.66684854157415 177.64374238501492
  endloop
endfacet
facet normal -0.6305401554491988 -7.145307477493493e-07 -0.7761566287583903
  outer loop
    vertex -2.484069237207039 181.16684854157415 177.04374238501492
    vertex -3.222603299282496 200.66622460207057 177.64370596786134
    vertex -2.484062314243175 200.16684854134934 177.04370596786134
  endloop
endfacet
facet normal -0.6305401554491988 -7.145307477493493e-07 -0.7761566287583903
  outer loop
    vertex -2.484069237207039 181.16684854157415 177.04374238501492
    vertex -2.484062314243175 200.16684854134934 177.04370596786134
    vertex 1.1156203530895528 181.1668485415742 174.11940196757573
  endloop
endfacet
facet normal -0.6305401554491988 -7.145307477493493e-07 -0.7761566287583903
  outer loop
    vertex 1.1156203530895528 181.1668485415742 174.11940196757573
    vertex -2.484062314243175 200.16684854134934 177.04370596786134
    vertex 1.115627276053406 200.16684854134937 174.11936555042223
  endloop
endfacet
facet normal -0.6305401554491988 -7.145307477493493e-07 -0.7761566287583903
  outer loop
    vertex -2.484069237207028 180.1668485415741 177.04374238501495
    vertex -3.2226336469105124 169.02084149616266 177.64374238501492
    vertex -3.2226336469105124 180.66684854157415 177.64374238501492
  endloop
endfacet
facet normal -0.6305401554491988 -7.145307477493493e-07 -0.7761566287583903
  outer loop
    vertex -3.2226336469105124 169.02084149616266 177.64374238501492
    vertex -2.484069237207028 180.1668485415741 177.04374238501495
    vertex 1.1156203530895528 169.0208414961627 174.1194019675757
  endloop
endfacet
facet normal -0.6305401554491988 -7.145307477493493e-07 -0.7761566287583903
  outer loop
    vertex 1.1156203530895528 169.0208414961627 174.1194019675757
    vertex -2.484069237207028 180.1668485415741 177.04374238501495
    vertex 1.1156203530895528 180.16684854157424 174.11940196757575
  endloop
endfacet
facet normal -0.6305405270784603 3.018048306531677e-06 -0.7761563268456354
  outer loop
    vertex 1.1156203530895472 207.3128555869857 174.11940196757578
    vertex -3.222603299282496 200.66622460207057 177.64370596786134
    vertex -3.2226336469105066 207.3128555869857 177.64374238501497
  endloop
endfacet
facet normal -0.6305405270784603 3.018048306531677e-06 -0.7761563268456354
  outer loop
    vertex -3.222603299282496 200.66622460207057 177.64370596786134
    vertex 1.1156203530895472 207.3128555869857 174.11940196757578
    vertex -2.4840623142431917 201.1656006627919 177.0437059678614
  endloop
endfacet
facet normal -0.6305405270784603 3.018048306531677e-06 -0.7761563268456354
  outer loop
    vertex -2.4840623142431917 201.1656006627919 177.0437059678614
    vertex 1.1156203530895472 207.3128555869857 174.11940196757578
    vertex 1.115627276053406 201.16560066279192 174.11936555042226
  endloop
endfacet
facet normal -1.191788568877957e-15 1.0 1.0817735596191369e-14
  outer loop
    vertex 1.1156203530895528 180.16684854157424 170.25877196757577
    vertex 4.115620353089553 180.16684854157427 170.05877196757584
    vertex 1.3156203530894848 180.16684854157427 170.05877196757584
  endloop
endfacet
facet normal -1.191788568877957e-15 1.0 1.0817735596191369e-14
  outer loop
    vertex 4.115620353089553 180.16684854157427 170.05877196757584
    vertex 1.1156203530895528 180.16684854157424 170.25877196757577
    vertex 4.115620353089548 180.16684854157413 177.04374238501495
  endloop
endfacet
facet normal -1.191788568877957e-15 1.0 1.0817735596191369e-14
  outer loop
    vertex 4.115620353089548 180.16684854157413 177.04374238501495
    vertex 1.1156203530895528 180.16684854157424 170.25877196757577
    vertex 1.1156203530895528 180.16684854157424 174.11940196757575
  endloop
endfacet
facet normal -1.191788568877957e-15 1.0 1.0817735596191369e-14
  outer loop
    vertex 4.115620353089548 180.16684854157413 177.04374238501495
    vertex 1.1156203530895528 180.16684854157424 174.11940196757575
    vertex -2.484069237207028 180.1668485415741 177.04374238501495
  endloop
endfacet
facet normal -0.9999999999999336 3.6436651863588113e-07 -1.9587521093254238e-21
  outer loop
    vertex 1.115627276053406 200.16684854134937 174.11936555042223
    vertex 1.1156203530895528 181.1668485415742 172.0587719675758
    vertex 1.1156203530895528 181.1668485415742 174.11940196757573
  endloop
endfacet
facet normal -0.9999999999999336 3.6436651863588113e-07 -1.9587521093254238e-21
  outer loop
    vertex 1.1156203530895528 181.1668485415742 172.0587719675758
    vertex 1.115627276053406 200.16684854134937 174.11936555042223
    vertex 1.115627276053406 200.1668485413493 172.0587355504222
  endloop
endfacet
facet normal -0.9642053928037903 -0.2651564830210428 -1.0953478354949875e-15
  outer loop
    vertex 0.5656203530895537 183.1668485415742 171.05877196757584
    vertex 1.1156203530895528 181.16684854157424 170.0587719675758
    vertex 1.1156203530895528 181.1668485415742 172.0587719675758
  endloop
endfacet
facet normal 1.4175908359592169e-15 1.0 -4.718447854656915e-16
  outer loop
    vertex 1.115627276053406 200.1668485413493 172.0587355504222
    vertex 3.115627276053408 200.1668485413493 170.05873555042223
    vertex 1.115627276053406 200.1668485413493 170.05873555042223
  endloop
endfacet
facet normal 1.4175908359592169e-15 1.0 -4.718447854656915e-16
  outer loop
    vertex 3.115627276053408 200.1668485413493 170.05873555042223
    vertex 1.115627276053406 200.1668485413493 172.0587355504222
    vertex 3.115627276053408 200.16684854134934 177.04370596786134
  endloop
endfacet
facet normal 1.4175908359592169e-15 1.0 -4.718447854656915e-16
  outer loop
    vertex 3.115627276053408 200.16684854134934 177.04370596786134
    vertex 1.115627276053406 200.1668485413493 172.0587355504222
    vertex 1.115627276053406 200.16684854134937 174.11936555042223
  endloop
endfacet
facet normal 1.4175908359592169e-15 1.0 -4.718447854656915e-16
  outer loop
    vertex 3.115627276053408 200.16684854134934 177.04370596786134
    vertex 1.115627276053406 200.16684854134937 174.11936555042223
    vertex -2.484062314243175 200.16684854134934 177.04370596786134
  endloop
endfacet
facet normal -0.8761607170872642 -7.358503014267056e-06 -0.4820190844551527
  outer loop
    vertex 0.5656203530895537 183.1668485415742 171.05877196757584
    vertex 1.115627276053406 200.1668485413493 170.05873555042223
    vertex 1.1156203530895528 181.16684854157424 170.0587719675758
  endloop
endfacet
facet normal -0.8761607170872642 -7.358503014267056e-06 -0.4820190844551527
  outer loop
    vertex 1.115627276053406 200.1668485413493 170.05873555042223
    vertex 0.5656203530895537 183.1668485415742 171.05877196757584
    vertex 0.565501660372516 198.16684856994928 171.05842151121996
  endloop
endfacet
facet normal -0.8762246236583858 2.426558498518216e-06 0.481902904005394
  outer loop
    vertex 1.115627276053406 200.1668485413493 172.0587355504222
    vertex 0.5656203530895537 183.1668485415742 171.05877196757584
    vertex 1.1156203530895528 181.1668485415742 172.0587719675758
  endloop
endfacet
facet normal -0.8762246236583858 2.426558498518216e-06 0.481902904005394
  outer loop
    vertex 0.5656203530895537 183.1668485415742 171.05877196757584
    vertex 1.115627276053406 200.1668485413493 172.0587355504222
    vertex 0.565501660372516 198.16684856994928 171.05842151121996
  endloop
endfacet
facet normal -0.9641899074349825 0.26521278702302453 -3.982334498211991e-16
  outer loop
    vertex 1.115627276053406 200.1668485413493 170.05873555042223
    vertex 0.565501660372516 198.16684856994928 171.05842151121996
    vertex 1.115627276053406 200.1668485413493 172.0587355504222
  endloop
endfacet
facet normal -0.9999999999993658 -1.1261878586471276e-06 -2.5007673317662884e-23
  outer loop
    vertex 1.1156203530895472 207.3128555869857 174.11940196757578
    vertex 1.115627276053406 201.16560066279192 170.25873555042224
    vertex 1.115627276053406 201.16560066279192 174.11936555042226
  endloop
endfacet
facet normal -0.9999999999993658 -1.1261878586471276e-06 -2.5007673317662884e-23
  outer loop
    vertex 1.115627276053406 201.16560066279192 170.25873555042224
    vertex 1.1156203530895472 207.3128555869857 174.11940196757578
    vertex 1.1156203530895472 207.3128555869857 170.2587719675758
  endloop
endfacet
facet normal -1.0 0.0 0.0
  outer loop
    vertex 1.1156203530895528 180.16684854157424 174.11940196757575
    vertex 1.1156203530895528 169.02084149616272 170.2587719675758
    vertex 1.1156203530895528 169.0208414961627 174.1194019675757
  endloop
endfacet
facet normal -1.0 0.0 0.0
  outer loop
    vertex 1.1156203530895528 169.02084149616272 170.2587719675758
    vertex 1.1156203530895528 180.16684854157424 174.11940196757575
    vertex 1.1156203530895528 180.16684854157424 170.25877196757577
  endloop
endfacet
facet normal -0.7071067811824582 3.3926592924481815e-06 -0.7071067811824981
  outer loop
    vertex 1.3156203530895694 207.3128555869857 170.0587719675758
    vertex 1.115627276053406 201.16560066279192 170.25873555042224
    vertex 1.1156203530895472 207.3128555869857 170.2587719675758
  endloop
endfacet
facet normal -0.7071067811824582 3.3926592924481815e-06 -0.7071067811824981
  outer loop
    vertex 1.115627276053406 201.16560066279192 170.25873555042224
    vertex 1.3156203530895694 207.3128555869857 170.0587719675758
    vertex 1.3155908588998584 201.1656006627919 170.0587719675758
  endloop
endfacet
facet normal -0.7071067811865576 9.69948227621125e-16 -0.7071067811865376
  outer loop
    vertex 1.1156203530895528 169.02084149616272 170.2587719675758
    vertex 1.3156203530894848 180.16684854157427 170.05877196757584
    vertex 1.3156203530894621 169.02084149616266 170.05877196757584
  endloop
endfacet
facet normal -0.7071067811865576 9.69948227621125e-16 -0.7071067811865376
  outer loop
    vertex 1.3156203530894848 180.16684854157427 170.05877196757584
    vertex 1.1156203530895528 169.02084149616272 170.2587719675758
    vertex 1.1156203530895528 180.16684854157424 170.25877196757577
  endloop
endfacet
facet normal 2.400958853398952e-31 -1.331917918622749e-15 -1.0
  outer loop
    vertex -23.69035862410306 212.20022844116394 170.0587719675758
    vertex -23.132135941669684 166.0570398427247 170.05877196757586
    vertex -44.47140456687418 189.6007816506232 170.05877196757584
  endloop
endfacet
facet normal 2.400958853398952e-31 -1.331917918622749e-15 -1.0
  outer loop
    vertex -23.132135941669684 166.0570398427247 170.05877196757586
    vertex -23.69035862410306 212.20022844116394 170.0587719675758
    vertex -10.5608572992825 201.1656006627919 170.0587719675758
  endloop
endfacet
facet normal 2.400958853398952e-31 -1.331917918622749e-15 -1.0
  outer loop
    vertex -10.5608572992825 201.1656006627919 170.0587719675758
    vertex -23.69035862410306 212.20022844116394 170.0587719675758
    vertex -7.760887646910486 207.5128555869857 170.0587719675758
  endloop
endfacet
facet normal 2.400958853398952e-31 -1.331917918622749e-15 -1.0
  outer loop
    vertex -7.760887646910486 207.5128555869857 170.0587719675758
    vertex -23.69035862410306 212.20022844116394 170.0587719675758
    vertex -3.2226336469105066 211.1012709589212 170.05877196757578
  endloop
endfacet
facet normal 2.400958853398952e-31 -1.331917918622749e-15 -1.0
  outer loop
    vertex -23.132135941669684 166.0570398427247 170.05877196757586
    vertex -10.5608572992825 201.1656006627919 170.0587719675758
    vertex -10.560887646910516 180.16684854157427 170.05877196757584
  endloop
endfacet
facet normal 2.400958853398952e-31 -1.331917918622749e-15 -1.0
  outer loop
    vertex -10.5608572992825 201.1656006627919 170.0587719675758
    vertex -7.760887646910486 207.5128555869857 170.0587719675758
    vertex -7.760887646910532 207.3128555869857 170.0587719675758
  endloop
endfacet
facet normal 2.400958853398952e-31 -1.331917918622749e-15 -1.0
  outer loop
    vertex -7.760887646910486 207.5128555869857 170.0587719675758
    vertex -3.2226336469105066 211.1012709589212 170.05877196757578
    vertex -3.2226336469105066 207.5128555869857 170.0587719675758
  endloop
endfacet
facet normal 2.400958853398952e-31 -1.331917918622749e-15 -1.0
  outer loop
    vertex -3.2226336469105066 207.5128555869857 170.0587719675758
    vertex -3.2226336469105066 211.1012709589212 170.05877196757578
    vertex 17.2450913302821 212.20022844116394 170.0587719675758
  endloop
endfacet
facet normal 2.400958853398952e-31 -1.331917918622749e-15 -1.0
  outer loop
    vertex -3.2226336469105066 207.5128555869857 170.0587719675758
    vertex 17.2450913302821 212.20022844116394 170.0587719675758
    vertex 1.315620353089524 207.5128555869857 170.0587719675758
  endloop
endfacet
facet normal 2.400958853398952e-31 -1.331917918622749e-15 -1.0
  outer loop
    vertex 1.315620353089524 207.5128555869857 170.0587719675758
    vertex 17.2450913302821 212.20022844116394 170.0587719675758
    vertex 1.3156203530895694 207.3128555869857 170.0587719675758
  endloop
endfacet
facet normal 2.400958853398952e-31 -1.331917918622749e-15 -1.0
  outer loop
    vertex 1.3156203530895694 207.3128555869857 170.0587719675758
    vertex 17.2450913302821 212.20022844116394 170.0587719675758
    vertex 4.115627276053406 201.1656006627919 170.0587719675758
  endloop
endfacet
facet normal 2.400958853398952e-31 -1.331917918622749e-15 -1.0
  outer loop
    vertex 4.115627276053406 201.1656006627919 170.0587719675758
    vertex 17.2450913302821 212.20022844116394 170.0587719675758
    vertex 16.68686864784872 166.0570398427247 170.05877196757586
  endloop
endfacet
facet normal 2.400958853398952e-31 -1.331917918622749e-15 -1.0
  outer loop
    vertex 16.68686864784872 166.0570398427247 170.05877196757586
    vertex 17.2450913302821 212.20022844116394 170.0587719675758
    vertex 38.026137273053216 189.6007816506232 170.05877196757584
  endloop
endfacet
facet normal 2.400958853398952e-31 -1.331917918622749e-15 -1.0
  outer loop
    vertex -10.560887646910516 180.16684854157427 170.05877196757584
    vertex -3.2226336469105066 147.06783555457528 170.05877196757586
    vertex -23.132135941669684 166.0570398427247 170.05877196757586
  endloop
endfacet
facet normal 2.400958853398952e-31 -1.331917918622749e-15 -1.0
  outer loop
    vertex -3.2226336469105066 147.06783555457528 170.05877196757586
    vertex -10.560887646910516 180.16684854157427 170.05877196757584
    vertex -7.760887646910402 168.82084149616279 170.05877196757584
  endloop
endfacet
facet normal 2.400958853398952e-31 -1.331917918622749e-15 -1.0
  outer loop
    vertex -7.760887646910402 168.82084149616279 170.05877196757584
    vertex -10.560887646910516 180.16684854157427 170.05877196757584
    vertex -7.760887646910424 169.02084149616266 170.05877196757584
  endloop
endfacet
facet normal 2.400958853398952e-31 -1.331917918622749e-15 -1.0
  outer loop
    vertex -7.760887646910424 169.02084149616266 170.05877196757584
    vertex -10.560887646910516 180.16684854157427 170.05877196757584
    vertex -7.760887646910447 180.16684854157427 170.05877196757584
  endloop
endfacet
facet normal 2.400958853398952e-31 -1.331917918622749e-15 -1.0
  outer loop
    vertex -3.2226336469105066 147.06783555457528 170.05877196757586
    vertex -7.760887646910402 168.82084149616279 170.05877196757584
    vertex -3.2226336469105124 168.82084149616279 170.05877196757584
  endloop
endfacet
facet normal 2.400958853398952e-31 -1.331917918622749e-15 -1.0
  outer loop
    vertex -3.2226336469105066 147.06783555457528 170.05877196757586
    vertex -3.2226336469105124 168.82084149616279 170.05877196757584
    vertex 1.3156203530894395 168.82084149616279 170.05877196757584
  endloop
endfacet
facet normal 2.400958853398952e-31 -1.331917918622749e-15 -1.0
  outer loop
    vertex -3.2226336469105066 147.06783555457528 170.05877196757586
    vertex 1.3156203530894395 168.82084149616279 170.05877196757584
    vertex 16.68686864784872 166.0570398427247 170.05877196757586
  endloop
endfacet
facet normal 2.400958853398952e-31 -1.331917918622749e-15 -1.0
  outer loop
    vertex 16.68686864784872 166.0570398427247 170.05877196757586
    vertex 1.3156203530894395 168.82084149616279 170.05877196757584
    vertex 1.3156203530894621 169.02084149616266 170.05877196757584
  endloop
endfacet
facet normal 2.400958853398952e-31 -1.331917918622749e-15 -1.0
  outer loop
    vertex 16.68686864784872 166.0570398427247 170.05877196757586
    vertex 1.3156203530894621 169.02084149616266 170.05877196757584
    vertex 1.3156203530894848 180.16684854157427 170.05877196757584
  endloop
endfacet
facet normal 2.400958853398952e-31 -1.331917918622749e-15 -1.0
  outer loop
    vertex 16.68686864784872 166.0570398427247 170.05877196757586
    vertex 1.3156203530894848 180.16684854157427 170.05877196757584
    vertex 4.115620353089553 180.16684854157427 170.05877196757584
  endloop
endfacet
facet normal 2.400958853398952e-31 -1.331917918622749e-15 -1.0
  outer loop
    vertex 16.68686864784872 166.0570398427247 170.05877196757586
    vertex 4.115620353089553 180.16684854157427 170.05877196757584
    vertex 4.115627276053406 201.1656006627919 170.0587719675758
  endloop
endfacet
facet normal 2.400958853398952e-31 -1.331917918622749e-15 -1.0
  outer loop
    vertex 4.115627276053406 201.1656006627919 170.0587719675758
    vertex 1.3155908588998584 201.1656006627919 170.0587719675758
    vertex 1.3156203530895694 207.3128555869857 170.0587719675758
  endloop
endfacet
facet normal 2.400958853398952e-31 -1.331917918622749e-15 -1.0
  outer loop
    vertex -7.760820882128951 201.1656006627919 170.0587719675758
    vertex -10.5608572992825 201.1656006627919 170.0587719675758
    vertex -7.760887646910532 207.3128555869857 170.0587719675758
  endloop
endfacet
facet normal -1.0011780569387093e-18 -0.7071067811866797 -0.7071067811864155
  outer loop
    vertex 1.1156203530895472 207.3128555869857 170.2587719675758
    vertex -3.2226336469105066 207.5128555869857 170.0587719675758
    vertex 1.315620353089524 207.5128555869857 170.0587719675758
  endloop
endfacet
facet normal -1.0011780569387093e-18 -0.7071067811866797 -0.7071067811864155
  outer loop
    vertex -3.2226336469105066 207.5128555869857 170.0587719675758
    vertex 1.1156203530895472 207.3128555869857 170.2587719675758
    vertex -3.2226336469105066 207.3128555869857 170.2587719675758
  endloop
endfacet
facet normal 3.791032225314449e-15 0.7071067811866052 -0.70710678118649
  outer loop
    vertex -3.2226336469105124 169.02084149616275 170.25877196757577
    vertex 1.3156203530894395 168.82084149616279 170.05877196757584
    vertex -3.2226336469105124 168.82084149616279 170.05877196757584
  endloop
endfacet
facet normal 3.791032225314449e-15 0.7071067811866052 -0.70710678118649
  outer loop
    vertex 1.3156203530894395 168.82084149616279 170.05877196757584
    vertex -3.2226336469105124 169.02084149616275 170.25877196757577
    vertex 1.1156203530895528 169.02084149616272 170.2587719675758
  endloop
endfacet
facet normal -0.707106781186561 -5.771227751772228e-14 -0.707106781186534
  outer loop
    vertex 1.315620353089524 207.5128555869857 170.0587719675758
    vertex 1.3156203530895694 207.3128555869857 170.0587719675758
    vertex 1.1156203530895472 207.3128555869857 170.2587719675758
  endloop
endfacet
facet normal -0.7071067811865577 2.5408732557182378e-14 -0.7071067811865375
  outer loop
    vertex 1.1156203530895528 169.02084149616272 170.2587719675758
    vertex 1.3156203530894621 169.02084149616266 170.05877196757584
    vertex 1.3156203530894395 168.82084149616279 170.05877196757584
  endloop
endfacet
facet normal 0.30948469223660985 0.2832669103928963 0.9077329358063824
  outer loop
    vertex 9.764926408132446 206.50996140940404 185.80608839735453
    vertex -3.2226336469105066 227.0835763215684 183.8139018919303
    vertex -3.2226336469105066 210.24291779364677 189.06919353335167
  endloop
endfacet
facet normal 0.30948469223660985 0.2832669103928963 0.9077329358063824
  outer loop
    vertex -3.2226336469105066 227.0835763215684 183.8139018919303
    vertex 9.764926408132446 206.50996140940404 185.80608839735453
    vertex 22.752486463175348 219.6176635530832 177.28769161993597
  endloop
endfacet
facet normal 0.4844484154335019 0.08577782788050795 0.8706043286292983
  outer loop
    vertex 17.679130588291446 191.40047018872238 182.89091297983586
    vertex 22.752486463175348 219.6176635530832 177.28769161993597
    vertex 9.764926408132446 206.50996140940404 185.80608839735453
  endloop
endfacet
facet normal 0.4844484154335019 0.08577782788050795 0.8706043286292983
  outer loop
    vertex 22.752486463175348 219.6176635530832 177.28769161993597
    vertex 17.679130588291446 191.40047018872238 182.89091297983586
    vertex 38.580894823493345 189.3986811117196 171.45734078489858
  endloop
endfacet
facet normal 0.4222263205881881 -0.3550983638275078 0.8340444150101284
  outer loop
    vertex 18.073811294259567 166.0789801899942 171.9103655585096
    vertex 17.679130588291446 191.40047018872238 182.89091297983586
    vertex 7.4255888236745555 179.74061972785967 183.1174253666413
  endloop
endfacet
facet normal 0.4222263205881881 -0.3550983638275078 0.8340444150101284
  outer loop
    vertex 17.679130588291446 191.40047018872238 182.89091297983586
    vertex 18.073811294259567 166.0789801899942 171.9103655585096
    vertex 38.580894823493345 189.3986811117196 171.45734078489858
  endloop
endfacet
facet normal 0.36055394603295454 -0.4073169983802429 0.8391029226683547
  outer loop
    vertex 18.073811294259567 166.0789801899942 171.9103655585096
    vertex -3.2226336469105066 169.78688448735326 182.86111958457516
    vertex -3.2226336469105066 146.17150970898138 171.39775399437724
  endloop
endfacet
facet normal 0.36055394603295454 -0.4073169983802429 0.8391029226683547
  outer loop
    vertex -3.2226336469105066 169.78688448735326 182.86111958457516
    vertex 18.073811294259567 166.0789801899942 171.9103655585096
    vertex 7.4255888236745555 179.74061972785967 183.1174253666413
  endloop
endfacet
endsolid 海龜分殼版
